<mxfile host="app.diagrams.net" modified="2021-05-16T08:59:16.580Z" agent="5.0 (Macintosh)" etag="n3hfur3ZTcl6qfMmldBe" version="14.6.13" type="github">
  <diagram id="sb6_BynsG2hpPgU9wYwA" name="Page-1">
    <mxGraphModel dx="1377" dy="717" grid="1" gridSize="10" guides="1" tooltips="1" connect="1" arrows="1" fold="1" page="1" pageScale="1" pageWidth="850" pageHeight="1100" math="0" shadow="0">
      <root>
        <mxCell id="0" />
        <mxCell id="1" parent="0" />
        <mxCell id="CXl29PBmnFcWHP2elSxP-1" value="" style="rounded=0;whiteSpace=wrap;html=1;" vertex="1" parent="1">
          <mxGeometry x="80" y="210" width="120" height="60" as="geometry" />
        </mxCell>
      </root>
    </mxGraphModel>
  </diagram>
</mxfile>
